# xmcd CD database file
#
# Track frame offsets:
#	150
#	22937
#	44099
#	61421
#	87110
#	97099
#	117272
#	137922
#	156324
#	185592
#	204570
#
# Disc length: 3003 seconds
#
# Revision: 0
# Processed by: cddbd v1.5.1PL2 Copyright (c) Steve Scherf et al.
# Submitted via: CDex 1.51
#
DISCID=9c0bb90b
DTITLE=Henry and June - Goin' Back To Memphis
DYEAR=2004
DGENRE=Blues
TTITLE0=Goin' Back To Memphis
TTITLE1=Lowdown Streamline
TTITLE2=Roadside Blues
TTITLE3=I Feel Good Little Girl
TTITLE4=That's All Right
TTITLE5=Drunk
TTITLE6=Turd On The Run
TTITLE7=Shakem' On Down (live)
TTITLE8=Train I Ride (live)
TTITLE9=Help Me
TTITLE10=Still A Fool
EXTD=YEAR: 2004
EXTT0=
EXTT1=
EXTT2=
EXTT3=
EXTT4=
EXTT5=
EXTT6=
EXTT7=
EXTT8=
EXTT9=
EXTT10=
PLAYORDER=
